<?xml version="1.0" encoding="UTF-8"?>
<svg width="34px" height="34px" viewBox="0 0 34 34" version="1.1" xmlns="http://www.w3.org/2000/svg" xmlns:xlink="http://www.w3.org/1999/xlink">
    <!-- Generator: Sketch 57.1 (83088) - https://sketch.com -->
    <title>编组</title>
    <desc>Created with Sketch.</desc>
    <defs>
        <linearGradient x1="50%" y1="0%" x2="50%" y2="100%" id="linearGradient-1">
            <stop stop-color="#FFAE60" offset="0%"></stop>
            <stop stop-color="#FE3F00" offset="100%"></stop>
        </linearGradient>
    </defs>
    <g id="页面-1" stroke="none" stroke-width="1" fill="none" fill-rule="evenodd">
        <g id="编组">
            <circle id="椭圆形" fill="url(#linearGradient-1)" transform="translate(17.000000, 17.000000) rotate(-90.000000) translate(-17.000000, -17.000000) " cx="17" cy="17" r="17"></circle>
            <g id="路径-3" transform="translate(8.000000, 8.000509)" fill="#FFFFFF" fill-rule="nonzero">
                <g id="路径-2">
                    <path d="M9.22714172,0.127512368 L17.723018,8.44578138 C17.895168,8.61842751 17.8599442,8.80298027 17.8599442,8.92998431 C17.8599442,9.24898275 17.5439224,9.42609387 17.428825,9.42609387 L15.3793964,9.42609387 L15.3793964,17.400559 C15.3793964,17.6530787 15.1229078,17.8599564 14.8832868,17.8599564 L11.4105199,17.8599564 C11.170899,17.8599564 10.9144103,17.6530787 10.9144103,17.400559 L10.9144103,11.4105321 L6.94553386,11.4105321 L6.94553386,17.400559 C6.94553386,17.6530787 6.68954133,17.8599564 6.4494243,17.8599564 L2.97665737,17.8599564 C2.73703645,17.8599564 2.4805478,17.6530787 2.4805478,17.400559 L2.4805478,9.42609387 L0.430623105,9.42609387 C0.191002186,9.42609387 1.59872116e-14,9.18200796 1.59872116e-14,8.92998431 C1.59872116e-14,8.78710476 0.0625097965,8.50928341 0.160739494,8.42593699 L4.38858518,4.2854066 L8.63776357,0.120070729 C8.71638443,0.0418936276 8.82315075,-0.00136686016 8.93401525,5.32907052e-15 C9.04487976,0.00143274719 9.15051978,0.0473751318 9.22714172,0.127512368 Z" id="路径"></path>
                </g>
            </g>
        </g>
    </g>
</svg>